<mxfile host="app.diagrams.net" agent="Mozilla/5.0 (Windows NT 10.0; Win64; x64) AppleWebKit/537.36 (KHTML, like Gecko) Chrome/133.0.0.0 Safari/537.36" version="26.1.0">
  <diagram name="Page-1" id="74e2e168-ea6b-b213-b513-2b3c1d86103e">
    <mxGraphModel grid="1" page="1" gridSize="10" guides="1" tooltips="1" connect="1" arrows="1" fold="1" pageScale="1" pageWidth="1100" pageHeight="850" background="none" math="0" shadow="0" adaptiveColors="auto">
      <root>
        <mxCell id="0" />
        <mxCell id="1" parent="0" />
        <mxCell id="77e6c97f196da883-1" value="Pool" style="swimlane;html=1;childLayout=stackLayout;startSize=20;rounded=1;shadow=0;labelBackgroundColor=none;strokeWidth=1;fontFamily=Verdana;fontSize=8;align=center;fillColor=#FAE5C7;strokeColor=#0F8B8D;fontColor=#143642;" vertex="1" parent="1">
          <mxGeometry x="-20" y="180" width="840" height="1230" as="geometry" />
        </mxCell>
        <mxCell id="77e6c97f196da883-2" value="Spectator" style="swimlane;html=1;startSize=20;fillColor=#FAE5C7;strokeColor=#0F8B8D;labelBackgroundColor=none;fontColor=#143642;rounded=1;" vertex="1" parent="77e6c97f196da883-1">
          <mxGeometry y="20" width="300" height="1210" as="geometry" />
        </mxCell>
        <mxCell id="77e6c97f196da883-10" value="&lt;font style=&quot;font-size: 12px;&quot;&gt;Plata&lt;/font&gt;" style="rounded=1;whiteSpace=wrap;html=1;shadow=0;labelBackgroundColor=none;strokeWidth=1;fontFamily=Verdana;fontSize=8;align=center;fillColor=#FAE5C7;strokeColor=#0F8B8D;fontColor=#143642;" vertex="1" parent="77e6c97f196da883-2">
          <mxGeometry x="100" y="620" width="100" height="60" as="geometry" />
        </mxCell>
        <mxCell id="77e6c97f196da883-8" value="&lt;font style=&quot;font-size: 12px;&quot;&gt;Cerere bilet&lt;/font&gt;" style="rounded=1;whiteSpace=wrap;html=1;shadow=0;labelBackgroundColor=none;strokeWidth=1;fontFamily=Verdana;fontSize=8;align=center;fillColor=#FAE5C7;strokeColor=#0F8B8D;fontColor=#143642;" vertex="1" parent="77e6c97f196da883-2">
          <mxGeometry x="20" y="65" width="100" height="60" as="geometry" />
        </mxCell>
        <mxCell id="NqoLng2H9EKiZbXhe4lD-12" value="" style="edgeStyle=orthogonalEdgeStyle;rounded=1;orthogonalLoop=1;jettySize=auto;html=1;labelBackgroundColor=none;strokeColor=#A8201A;fontColor=default;" edge="1" parent="77e6c97f196da883-2" source="NqoLng2H9EKiZbXhe4lD-15" target="77e6c97f196da883-8">
          <mxGeometry relative="1" as="geometry">
            <mxPoint x="70" y="40" as="sourcePoint" />
          </mxGeometry>
        </mxCell>
        <mxCell id="NqoLng2H9EKiZbXhe4lD-15" value="" style="ellipse;html=1;shape=startState;fillColor=#008a00;strokeColor=#005700;labelBackgroundColor=none;fontColor=#ffffff;rounded=1;" vertex="1" parent="77e6c97f196da883-2">
          <mxGeometry x="55" y="20" width="30" height="30" as="geometry" />
        </mxCell>
        <mxCell id="NqoLng2H9EKiZbXhe4lD-49" value="" style="edgeStyle=orthogonalEdgeStyle;rounded=1;orthogonalLoop=1;jettySize=auto;html=1;labelBackgroundColor=none;strokeColor=#A8201A;fontColor=default;" edge="1" parent="77e6c97f196da883-2" source="NqoLng2H9EKiZbXhe4lD-45" target="NqoLng2H9EKiZbXhe4lD-48">
          <mxGeometry relative="1" as="geometry" />
        </mxCell>
        <mxCell id="NqoLng2H9EKiZbXhe4lD-45" value="Bilet necumparat" style="rounded=1;whiteSpace=wrap;html=1;labelBackgroundColor=none;fillColor=#FAE5C7;strokeColor=#0F8B8D;fontColor=#143642;" vertex="1" parent="77e6c97f196da883-2">
          <mxGeometry x="10" y="1060" width="110" height="50" as="geometry" />
        </mxCell>
        <mxCell id="NqoLng2H9EKiZbXhe4lD-48" value="" style="ellipse;html=1;shape=endState;fillColor=#a20025;strokeColor=#6F0000;labelBackgroundColor=none;fontColor=#ffffff;rounded=1;" vertex="1" parent="77e6c97f196da883-2">
          <mxGeometry x="50" y="1160" width="30" height="30" as="geometry" />
        </mxCell>
        <mxCell id="NqoLng2H9EKiZbXhe4lD-67" style="edgeStyle=orthogonalEdgeStyle;rounded=1;orthogonalLoop=1;jettySize=auto;html=1;exitX=1;exitY=1;exitDx=0;exitDy=0;entryX=0.5;entryY=1;entryDx=0;entryDy=0;labelBackgroundColor=none;strokeColor=#A8201A;fontColor=default;" edge="1" parent="77e6c97f196da883-2" source="NqoLng2H9EKiZbXhe4lD-48" target="NqoLng2H9EKiZbXhe4lD-48">
          <mxGeometry relative="1" as="geometry" />
        </mxCell>
        <mxCell id="NqoLng2H9EKiZbXhe4lD-77" value="&lt;font style=&quot;font-size: 12px;&quot;&gt;Client introduce pin/card&lt;/font&gt;" style="whiteSpace=wrap;html=1;fontSize=8;fontFamily=Verdana;rounded=1;shadow=0;labelBackgroundColor=none;strokeWidth=1;fillColor=#FAE5C7;strokeColor=#0F8B8D;fontColor=#143642;" vertex="1" parent="77e6c97f196da883-2">
          <mxGeometry x="140" y="780" width="120" height="60" as="geometry" />
        </mxCell>
        <mxCell id="NqoLng2H9EKiZbXhe4lD-150" style="edgeStyle=orthogonalEdgeStyle;rounded=1;orthogonalLoop=1;jettySize=auto;html=1;entryX=0.5;entryY=1;entryDx=0;entryDy=0;strokeColor=#A8201A;fontColor=default;dashed=1;labelBackgroundColor=none;" edge="1" parent="77e6c97f196da883-2" source="NqoLng2H9EKiZbXhe4lD-146" target="77e6c97f196da883-8">
          <mxGeometry relative="1" as="geometry" />
        </mxCell>
        <mxCell id="NqoLng2H9EKiZbXhe4lD-146" value="&lt;font style=&quot;color: rgb(255, 0, 0);&quot;&gt;Actiune&lt;/font&gt;" style="text;html=1;align=center;verticalAlign=middle;resizable=0;points=[];autosize=1;strokeColor=none;fillColor=none;fontColor=#143642;labelBackgroundColor=none;rounded=1;" vertex="1" parent="77e6c97f196da883-2">
          <mxGeometry x="40" y="180" width="60" height="30" as="geometry" />
        </mxCell>
        <mxCell id="77e6c97f196da883-3" value="&amp;nbsp;Casa de Bilete" style="swimlane;html=1;startSize=20;fillColor=#FAE5C7;strokeColor=#0F8B8D;labelBackgroundColor=none;fontColor=#143642;rounded=1;" vertex="1" parent="77e6c97f196da883-1">
          <mxGeometry x="300" y="20" width="160" height="1210" as="geometry" />
        </mxCell>
        <mxCell id="NqoLng2H9EKiZbXhe4lD-7" value="" style="edgeStyle=orthogonalEdgeStyle;rounded=1;orthogonalLoop=1;jettySize=auto;html=1;labelBackgroundColor=none;strokeColor=#A8201A;fontColor=default;" edge="1" parent="77e6c97f196da883-3" source="77e6c97f196da883-11" target="77e6c97f196da883-9">
          <mxGeometry relative="1" as="geometry" />
        </mxCell>
        <mxCell id="77e6c97f196da883-11" value="&lt;font style=&quot;font-size: 12px;&quot;&gt;Conformare cerere Bilet&lt;/font&gt;" style="rounded=1;whiteSpace=wrap;html=1;shadow=0;labelBackgroundColor=none;strokeWidth=1;fontFamily=Verdana;fontSize=8;align=center;fillColor=#FAE5C7;strokeColor=#0F8B8D;fontColor=#143642;" vertex="1" parent="77e6c97f196da883-3">
          <mxGeometry x="30" y="65" width="100" height="60" as="geometry" />
        </mxCell>
        <mxCell id="NqoLng2H9EKiZbXhe4lD-24" value="" style="edgeStyle=orthogonalEdgeStyle;rounded=1;orthogonalLoop=1;jettySize=auto;html=1;labelBackgroundColor=none;strokeColor=#A8201A;fontColor=default;" edge="1" parent="77e6c97f196da883-3" source="77e6c97f196da883-9">
          <mxGeometry relative="1" as="geometry">
            <mxPoint x="80" y="295" as="targetPoint" />
          </mxGeometry>
        </mxCell>
        <mxCell id="77e6c97f196da883-9" value="&lt;font style=&quot;font-size: 12px;&quot;&gt;Verificare disponibilitate Bilete data Specifica&lt;/font&gt;" style="rounded=1;whiteSpace=wrap;html=1;shadow=0;labelBackgroundColor=none;strokeWidth=1;fontFamily=Verdana;fontSize=8;align=center;fillColor=#FAE5C7;strokeColor=#0F8B8D;fontColor=#143642;" vertex="1" parent="77e6c97f196da883-3">
          <mxGeometry x="30" y="155" width="100" height="60" as="geometry" />
        </mxCell>
        <mxCell id="NqoLng2H9EKiZbXhe4lD-46" value="Initiere Cerere platÄƒ" style="rounded=1;whiteSpace=wrap;html=1;labelBackgroundColor=none;fillColor=#FAE5C7;strokeColor=#0F8B8D;fontColor=#143642;" vertex="1" parent="77e6c97f196da883-3">
          <mxGeometry x="20" y="430" width="120" height="60" as="geometry" />
        </mxCell>
        <mxCell id="NqoLng2H9EKiZbXhe4lD-44" value="" style="group;aspect=fixed;direction=west;flipH=1;labelBackgroundColor=none;fontColor=#143642;rounded=1;" connectable="0" vertex="1" parent="77e6c97f196da883-3">
          <mxGeometry x="-60" y="300" width="160" height="120" as="geometry" />
        </mxCell>
        <mxCell id="NqoLng2H9EKiZbXhe4lD-41" value="Condition" style="rhombus;whiteSpace=wrap;html=1;fillColor=#fa6800;strokeColor=#C73500;direction=south;labelBackgroundColor=none;fontColor=#000000;rounded=1;" vertex="1" parent="NqoLng2H9EKiZbXhe4lD-44">
          <mxGeometry x="120" width="40" height="80" as="geometry" />
        </mxCell>
        <mxCell id="NqoLng2H9EKiZbXhe4lD-43" value="yes" style="edgeStyle=orthogonalEdgeStyle;html=1;align=left;verticalAlign=top;endArrow=open;endSize=8;strokeColor=#A8201A;rounded=1;labelBackgroundColor=none;fontColor=default;" edge="1" parent="NqoLng2H9EKiZbXhe4lD-44" source="NqoLng2H9EKiZbXhe4lD-41">
          <mxGeometry x="-1" relative="1" as="geometry">
            <mxPoint x="140" y="120" as="targetPoint" />
          </mxGeometry>
        </mxCell>
        <mxCell id="NqoLng2H9EKiZbXhe4lD-66" value="" style="edgeStyle=orthogonalEdgeStyle;rounded=1;orthogonalLoop=1;jettySize=auto;html=1;labelBackgroundColor=none;strokeColor=#A8201A;fontColor=default;" edge="1" parent="77e6c97f196da883-3" source="77e6c97f196da883-14" target="77e6c97f196da883-19">
          <mxGeometry relative="1" as="geometry" />
        </mxCell>
        <mxCell id="77e6c97f196da883-14" value="&lt;font style=&quot;font-size: 12px;&quot;&gt;Procesare plata&lt;/font&gt;" style="rounded=1;whiteSpace=wrap;html=1;shadow=0;labelBackgroundColor=none;strokeWidth=1;fontFamily=Verdana;fontSize=8;align=center;fillColor=#FAE5C7;strokeColor=#0F8B8D;fontColor=#143642;" vertex="1" parent="77e6c97f196da883-3">
          <mxGeometry x="30" y="610" width="100" height="60" as="geometry" />
        </mxCell>
        <mxCell id="NqoLng2H9EKiZbXhe4lD-108" style="edgeStyle=orthogonalEdgeStyle;rounded=1;orthogonalLoop=1;jettySize=auto;html=1;entryX=0.5;entryY=0;entryDx=0;entryDy=0;labelBackgroundColor=none;strokeColor=#A8201A;fontColor=default;" edge="1" parent="77e6c97f196da883-3" source="77e6c97f196da883-19" target="NqoLng2H9EKiZbXhe4lD-92">
          <mxGeometry relative="1" as="geometry" />
        </mxCell>
        <mxCell id="77e6c97f196da883-19" value="&lt;font style=&quot;font-size: 12px;&quot;&gt;Eliberare Bon fiscal si Bilet&lt;/font&gt;" style="rounded=1;whiteSpace=wrap;html=1;shadow=0;labelBackgroundColor=none;strokeWidth=1;fontFamily=Verdana;fontSize=8;align=center;fillColor=#FAE5C7;strokeColor=#0F8B8D;fontColor=#143642;" vertex="1" parent="77e6c97f196da883-3">
          <mxGeometry x="30" y="730" width="100" height="60" as="geometry" />
        </mxCell>
        <mxCell id="NqoLng2H9EKiZbXhe4lD-95" value="" style="edgeStyle=orthogonalEdgeStyle;rounded=1;orthogonalLoop=1;jettySize=auto;html=1;labelBackgroundColor=none;strokeColor=#A8201A;fontColor=default;" edge="1" parent="77e6c97f196da883-3" source="NqoLng2H9EKiZbXhe4lD-92" target="NqoLng2H9EKiZbXhe4lD-94">
          <mxGeometry relative="1" as="geometry" />
        </mxCell>
        <mxCell id="NqoLng2H9EKiZbXhe4lD-92" value="Bilet Cumparat" style="rounded=1;whiteSpace=wrap;html=1;labelBackgroundColor=none;fillColor=#FAE5C7;strokeColor=#0F8B8D;fontColor=#143642;" vertex="1" parent="77e6c97f196da883-3">
          <mxGeometry x="20" y="1060" width="120" height="60" as="geometry" />
        </mxCell>
        <mxCell id="NqoLng2H9EKiZbXhe4lD-94" value="" style="ellipse;html=1;shape=endState;fillColor=#a20025;strokeColor=#6F0000;labelBackgroundColor=none;fontColor=#ffffff;rounded=1;" vertex="1" parent="77e6c97f196da883-3">
          <mxGeometry x="65" y="1160" width="30" height="30" as="geometry" />
        </mxCell>
        <mxCell id="NqoLng2H9EKiZbXhe4lD-113" value="Condition" style="rhombus;whiteSpace=wrap;html=1;fillColor=#fa6800;strokeColor=#C73500;direction=west;labelBackgroundColor=none;fontColor=#000000;rounded=1;" vertex="1" parent="77e6c97f196da883-3">
          <mxGeometry x="40" y="510" width="80" height="40" as="geometry" />
        </mxCell>
        <mxCell id="NqoLng2H9EKiZbXhe4lD-128" value="card" style="text;html=1;align=center;verticalAlign=middle;resizable=0;points=[];autosize=1;strokeColor=none;fillColor=none;labelBackgroundColor=none;fontColor=#143642;rounded=1;" vertex="1" parent="77e6c97f196da883-3">
          <mxGeometry x="110" y="500" width="50" height="30" as="geometry" />
        </mxCell>
        <mxCell id="77e6c97f196da883-4" value="Procesator Banca Client" style="swimlane;html=1;startSize=20;fillColor=#FAE5C7;strokeColor=#0F8B8D;labelBackgroundColor=none;fontColor=#143642;rounded=1;" vertex="1" parent="77e6c97f196da883-1">
          <mxGeometry x="460" y="20" width="160" height="1210" as="geometry" />
        </mxCell>
        <mxCell id="NqoLng2H9EKiZbXhe4lD-76" value="" style="edgeStyle=orthogonalEdgeStyle;rounded=1;orthogonalLoop=1;jettySize=auto;html=1;labelBackgroundColor=none;strokeColor=#A8201A;fontColor=default;" edge="1" parent="77e6c97f196da883-4" source="NqoLng2H9EKiZbXhe4lD-73" target="NqoLng2H9EKiZbXhe4lD-75">
          <mxGeometry relative="1" as="geometry" />
        </mxCell>
        <mxCell id="NqoLng2H9EKiZbXhe4lD-73" value="&lt;font style=&quot;font-size: 12px;&quot;&gt;Primire ordin de plata pentru bilet&lt;/font&gt;" style="whiteSpace=wrap;html=1;fontSize=8;fontFamily=Verdana;rounded=1;shadow=0;labelBackgroundColor=none;strokeWidth=1;fillColor=#FAE5C7;strokeColor=#0F8B8D;fontColor=#143642;" vertex="1" parent="77e6c97f196da883-4">
          <mxGeometry x="30" y="360" width="120" height="60" as="geometry" />
        </mxCell>
        <mxCell id="NqoLng2H9EKiZbXhe4lD-75" value="&lt;font style=&quot;font-size: 12px;&quot;&gt;Cerere card/pin Client&lt;/font&gt;" style="whiteSpace=wrap;html=1;fontSize=8;fontFamily=Verdana;rounded=1;shadow=0;labelBackgroundColor=none;strokeWidth=1;fillColor=#FAE5C7;strokeColor=#0F8B8D;fontColor=#143642;" vertex="1" parent="77e6c97f196da883-4">
          <mxGeometry x="30" y="500" width="120" height="60" as="geometry" />
        </mxCell>
        <mxCell id="NqoLng2H9EKiZbXhe4lD-80" value="&lt;font style=&quot;font-size: 12px;&quot;&gt;Primire date Card/pin&lt;/font&gt;" style="whiteSpace=wrap;html=1;fontSize=8;fontFamily=Verdana;rounded=1;shadow=0;labelBackgroundColor=none;strokeWidth=1;fillColor=#FAE5C7;strokeColor=#0F8B8D;fontColor=#143642;" vertex="1" parent="77e6c97f196da883-4">
          <mxGeometry x="20" y="830" width="120" height="60" as="geometry" />
        </mxCell>
        <mxCell id="NqoLng2H9EKiZbXhe4lD-132" value="" style="edgeStyle=orthogonalEdgeStyle;rounded=1;orthogonalLoop=1;jettySize=auto;html=1;labelBackgroundColor=none;strokeColor=#A8201A;fontColor=default;" edge="1" parent="77e6c97f196da883-4" source="NqoLng2H9EKiZbXhe4lD-80" target="NqoLng2H9EKiZbXhe4lD-86">
          <mxGeometry relative="1" as="geometry" />
        </mxCell>
        <mxCell id="NqoLng2H9EKiZbXhe4lD-86" value="Condition" style="rhombus;whiteSpace=wrap;html=1;fillColor=#fa6800;strokeColor=#C73500;direction=south;labelBackgroundColor=none;fontColor=#000000;rounded=1;" vertex="1" parent="77e6c97f196da883-4">
          <mxGeometry x="60" y="910" width="40" height="80" as="geometry" />
        </mxCell>
        <mxCell id="NqoLng2H9EKiZbXhe4lD-87" value="correct" style="edgeStyle=orthogonalEdgeStyle;html=1;align=left;verticalAlign=bottom;endArrow=open;endSize=8;strokeColor=#A8201A;rounded=1;labelBackgroundColor=none;fontColor=default;" edge="1" parent="77e6c97f196da883-4" source="NqoLng2H9EKiZbXhe4lD-86">
          <mxGeometry x="-1" relative="1" as="geometry">
            <mxPoint x="220" y="930" as="targetPoint" />
          </mxGeometry>
        </mxCell>
        <mxCell id="NqoLng2H9EKiZbXhe4lD-88" value="incorect" style="edgeStyle=orthogonalEdgeStyle;html=1;align=left;verticalAlign=top;endArrow=open;endSize=8;strokeColor=#A8201A;rounded=1;entryX=0.5;entryY=0;entryDx=0;entryDy=0;labelBackgroundColor=none;fontColor=default;" edge="1" parent="77e6c97f196da883-4" source="NqoLng2H9EKiZbXhe4lD-86" target="77e6c97f196da883-23">
          <mxGeometry x="-1" relative="1" as="geometry">
            <mxPoint x="80" y="1010" as="targetPoint" />
          </mxGeometry>
        </mxCell>
        <mxCell id="77e6c97f196da883-23" value="&lt;font style=&quot;font-size: 12px;&quot;&gt;Anulare plata&lt;/font&gt;" style="rounded=1;whiteSpace=wrap;html=1;shadow=0;labelBackgroundColor=none;strokeWidth=1;fontFamily=Verdana;fontSize=8;align=center;fillColor=#FAE5C7;strokeColor=#0F8B8D;fontColor=#143642;" vertex="1" parent="77e6c97f196da883-4">
          <mxGeometry x="30" y="1060" width="100" height="60" as="geometry" />
        </mxCell>
        <mxCell id="NqoLng2H9EKiZbXhe4lD-106" value="" style="ellipse;html=1;shape=endState;fillColor=#a20025;strokeColor=#6F0000;labelBackgroundColor=none;fontColor=#ffffff;rounded=1;" vertex="1" parent="77e6c97f196da883-4">
          <mxGeometry x="60" y="1160" width="30" height="30" as="geometry" />
        </mxCell>
        <mxCell id="NqoLng2H9EKiZbXhe4lD-107" style="edgeStyle=orthogonalEdgeStyle;rounded=1;orthogonalLoop=1;jettySize=auto;html=1;entryX=0.667;entryY=0.311;entryDx=0;entryDy=0;entryPerimeter=0;labelBackgroundColor=none;strokeColor=#A8201A;fontColor=default;" edge="1" parent="77e6c97f196da883-4" source="77e6c97f196da883-23" target="NqoLng2H9EKiZbXhe4lD-106">
          <mxGeometry relative="1" as="geometry" />
        </mxCell>
        <mxCell id="77e6c97f196da883-26" style="edgeStyle=orthogonalEdgeStyle;rounded=1;html=1;labelBackgroundColor=none;startArrow=none;startFill=0;startSize=5;endArrow=classicThin;endFill=1;endSize=5;jettySize=auto;orthogonalLoop=1;strokeWidth=1;fontFamily=Verdana;fontSize=8;strokeColor=#A8201A;fontColor=default;" edge="1" parent="77e6c97f196da883-1" source="77e6c97f196da883-8" target="77e6c97f196da883-11">
          <mxGeometry relative="1" as="geometry" />
        </mxCell>
        <mxCell id="NqoLng2H9EKiZbXhe4lD-42" value="no" style="edgeStyle=orthogonalEdgeStyle;html=1;align=left;verticalAlign=bottom;endArrow=open;endSize=8;strokeColor=#A8201A;rounded=1;labelBackgroundColor=none;fontColor=default;" edge="1" parent="77e6c97f196da883-1" source="NqoLng2H9EKiZbXhe4lD-41" target="NqoLng2H9EKiZbXhe4lD-45">
          <mxGeometry x="-0.9409" relative="1" as="geometry">
            <mxPoint x="100" y="360" as="targetPoint" />
            <mxPoint x="-1" as="offset" />
          </mxGeometry>
        </mxCell>
        <mxCell id="NqoLng2H9EKiZbXhe4lD-78" value="" style="edgeStyle=orthogonalEdgeStyle;rounded=1;orthogonalLoop=1;jettySize=auto;html=1;labelBackgroundColor=none;strokeColor=#A8201A;fontColor=default;" edge="1" parent="77e6c97f196da883-1" source="NqoLng2H9EKiZbXhe4lD-75" target="NqoLng2H9EKiZbXhe4lD-77">
          <mxGeometry relative="1" as="geometry">
            <Array as="points">
              <mxPoint x="550" y="810" />
              <mxPoint x="550" y="810" />
            </Array>
          </mxGeometry>
        </mxCell>
        <mxCell id="NqoLng2H9EKiZbXhe4lD-85" style="edgeStyle=orthogonalEdgeStyle;rounded=1;orthogonalLoop=1;jettySize=auto;html=1;exitX=0.5;exitY=1;exitDx=0;exitDy=0;labelBackgroundColor=none;strokeColor=#A8201A;fontColor=default;" edge="1" parent="77e6c97f196da883-1" source="NqoLng2H9EKiZbXhe4lD-77" target="NqoLng2H9EKiZbXhe4lD-80">
          <mxGeometry relative="1" as="geometry" />
        </mxCell>
        <mxCell id="NqoLng2H9EKiZbXhe4lD-116" value="" style="edgeStyle=orthogonalEdgeStyle;rounded=1;orthogonalLoop=1;jettySize=auto;html=1;labelBackgroundColor=none;strokeColor=#A8201A;fontColor=default;" edge="1" parent="77e6c97f196da883-1" source="NqoLng2H9EKiZbXhe4lD-113" target="77e6c97f196da883-10">
          <mxGeometry relative="1" as="geometry" />
        </mxCell>
        <mxCell id="NqoLng2H9EKiZbXhe4lD-117" value="cash" style="edgeLabel;html=1;align=center;verticalAlign=middle;resizable=0;points=[];labelBackgroundColor=none;fontColor=#143642;rounded=1;" connectable="0" vertex="1" parent="NqoLng2H9EKiZbXhe4lD-116">
          <mxGeometry x="0.1495" y="-11" relative="1" as="geometry">
            <mxPoint x="141" y="1" as="offset" />
          </mxGeometry>
        </mxCell>
        <mxCell id="NqoLng2H9EKiZbXhe4lD-93" style="edgeStyle=orthogonalEdgeStyle;rounded=1;orthogonalLoop=1;jettySize=auto;html=1;exitX=0.5;exitY=1;exitDx=0;exitDy=0;labelBackgroundColor=none;strokeColor=#A8201A;fontColor=default;" edge="1" parent="77e6c97f196da883-1" source="NqoLng2H9EKiZbXhe4lD-89" target="NqoLng2H9EKiZbXhe4lD-92">
          <mxGeometry relative="1" as="geometry">
            <mxPoint x="700" y="1080" as="sourcePoint" />
          </mxGeometry>
        </mxCell>
        <mxCell id="NqoLng2H9EKiZbXhe4lD-126" style="edgeStyle=orthogonalEdgeStyle;rounded=1;orthogonalLoop=1;jettySize=auto;html=1;entryX=1;entryY=0.5;entryDx=0;entryDy=0;labelBackgroundColor=none;strokeColor=#A8201A;fontColor=default;" edge="1" parent="77e6c97f196da883-1" source="NqoLng2H9EKiZbXhe4lD-54" target="NqoLng2H9EKiZbXhe4lD-73">
          <mxGeometry relative="1" as="geometry">
            <mxPoint x="690" y="420" as="targetPoint" />
            <Array as="points">
              <mxPoint x="690" y="345" />
              <mxPoint x="691" y="410" />
            </Array>
          </mxGeometry>
        </mxCell>
        <mxCell id="NqoLng2H9EKiZbXhe4lD-127" style="edgeStyle=orthogonalEdgeStyle;rounded=1;orthogonalLoop=1;jettySize=auto;html=1;entryX=0;entryY=0.5;entryDx=0;entryDy=0;labelBackgroundColor=none;strokeColor=#A8201A;fontColor=default;" edge="1" parent="77e6c97f196da883-1" source="NqoLng2H9EKiZbXhe4lD-113" target="77e6c97f196da883-17">
          <mxGeometry relative="1" as="geometry">
            <mxPoint x="480" y="320" as="targetPoint" />
            <Array as="points">
              <mxPoint x="480" y="550" />
              <mxPoint x="480" y="90" />
            </Array>
          </mxGeometry>
        </mxCell>
        <mxCell id="NqoLng2H9EKiZbXhe4lD-131" style="edgeStyle=orthogonalEdgeStyle;rounded=1;orthogonalLoop=1;jettySize=auto;html=1;exitX=1;exitY=0.5;exitDx=0;exitDy=0;entryX=0.1;entryY=0.669;entryDx=0;entryDy=0;entryPerimeter=0;labelBackgroundColor=none;strokeColor=#A8201A;fontColor=default;" edge="1" parent="77e6c97f196da883-1" source="77e6c97f196da883-10" target="77e6c97f196da883-14">
          <mxGeometry relative="1" as="geometry" />
        </mxCell>
        <mxCell id="77e6c97f196da883-5" value="Procesator Casa Bilete" style="swimlane;html=1;startSize=20;fillColor=#FAE5C7;strokeColor=#0F8B8D;labelBackgroundColor=none;fontColor=#143642;rounded=1;" vertex="1" parent="77e6c97f196da883-1">
          <mxGeometry x="620" y="20" width="200" height="1210" as="geometry" />
        </mxCell>
        <mxCell id="77e6c97f196da883-17" value="&lt;font style=&quot;font-size: 12px;&quot;&gt;Initiere ordin de plata&lt;/font&gt;" style="rounded=1;whiteSpace=wrap;html=1;shadow=0;labelBackgroundColor=none;strokeWidth=1;fontFamily=Verdana;fontSize=8;align=center;fillColor=#FAE5C7;strokeColor=#0F8B8D;fontColor=#143642;" vertex="1" parent="77e6c97f196da883-5">
          <mxGeometry x="70" y="40" width="100" height="60" as="geometry" />
        </mxCell>
        <mxCell id="NqoLng2H9EKiZbXhe4lD-54" value="&lt;font style=&quot;font-size: 12px;&quot;&gt;Trimitere ordin de plata catre banca clientului&lt;/font&gt;" style="rounded=1;whiteSpace=wrap;html=1;fontSize=8;fontFamily=Verdana;shadow=0;labelBackgroundColor=none;strokeWidth=1;fillColor=#FAE5C7;strokeColor=#0F8B8D;fontColor=#143642;" vertex="1" parent="77e6c97f196da883-5">
          <mxGeometry x="60" y="250" width="120" height="60" as="geometry" />
        </mxCell>
        <mxCell id="NqoLng2H9EKiZbXhe4lD-55" value="" style="edgeStyle=orthogonalEdgeStyle;rounded=1;orthogonalLoop=1;jettySize=auto;html=1;labelBackgroundColor=none;strokeColor=#A8201A;fontColor=default;" edge="1" parent="77e6c97f196da883-5" source="77e6c97f196da883-17" target="NqoLng2H9EKiZbXhe4lD-54">
          <mxGeometry relative="1" as="geometry" />
        </mxCell>
        <mxCell id="NqoLng2H9EKiZbXhe4lD-89" value="Procesare plata" style="rounded=1;whiteSpace=wrap;html=1;labelBackgroundColor=none;fillColor=#FAE5C7;strokeColor=#0F8B8D;fontColor=#143642;" vertex="1" parent="77e6c97f196da883-5">
          <mxGeometry x="20" y="900" width="120" height="60" as="geometry" />
        </mxCell>
        <mxCell id="NqoLng2H9EKiZbXhe4lD-136" value="&lt;font style=&quot;font-size: 25px;&quot;&gt;Povestea Biletului NÄƒzdrÄƒvan&lt;/font&gt;" style="text;html=1;align=center;verticalAlign=middle;resizable=0;points=[];autosize=1;strokeColor=none;fillColor=none;fontColor=#143642;labelBackgroundColor=none;rounded=1;" vertex="1" parent="1">
          <mxGeometry x="215" y="83" width="350" height="40" as="geometry" />
        </mxCell>
        <mxCell id="NqoLng2H9EKiZbXhe4lD-138" value="" style="edgeStyle=orthogonalEdgeStyle;rounded=1;orthogonalLoop=1;jettySize=auto;html=1;strokeColor=#A8201A;fontColor=default;dashed=1;labelBackgroundColor=none;" edge="1" parent="1" source="NqoLng2H9EKiZbXhe4lD-137" target="NqoLng2H9EKiZbXhe4lD-15">
          <mxGeometry relative="1" as="geometry" />
        </mxCell>
        <mxCell id="NqoLng2H9EKiZbXhe4lD-137" value="&lt;font style=&quot;color: rgb(255, 0, 0);&quot;&gt;Initial node&lt;/font&gt;" style="text;html=1;align=center;verticalAlign=middle;resizable=0;points=[];autosize=1;strokeColor=none;fillColor=none;fontColor=#143642;labelBackgroundColor=none;rounded=1;" vertex="1" parent="1">
          <mxGeometry x="10" y="128" width="80" height="30" as="geometry" />
        </mxCell>
        <mxCell id="NqoLng2H9EKiZbXhe4lD-143" style="edgeStyle=orthogonalEdgeStyle;rounded=1;orthogonalLoop=1;jettySize=auto;html=1;strokeColor=#A8201A;fontColor=default;dashed=1;labelBackgroundColor=none;" edge="1" parent="1" source="NqoLng2H9EKiZbXhe4lD-139">
          <mxGeometry relative="1" as="geometry">
            <mxPoint x="-30" y="215" as="targetPoint" />
          </mxGeometry>
        </mxCell>
        <mxCell id="NqoLng2H9EKiZbXhe4lD-139" value="&lt;font style=&quot;color: rgb(255, 0, 0);&quot;&gt;Partition&lt;/font&gt;" style="text;html=1;align=center;verticalAlign=middle;resizable=0;points=[];autosize=1;strokeColor=none;fillColor=none;fontColor=#143642;labelBackgroundColor=none;rounded=1;" vertex="1" parent="1">
          <mxGeometry x="-170" y="200" width="70" height="30" as="geometry" />
        </mxCell>
        <mxCell id="NqoLng2H9EKiZbXhe4lD-145" style="edgeStyle=orthogonalEdgeStyle;rounded=1;orthogonalLoop=1;jettySize=auto;html=1;strokeColor=#A8201A;fontColor=default;dashed=1;labelBackgroundColor=none;" edge="1" parent="1" source="NqoLng2H9EKiZbXhe4lD-144">
          <mxGeometry relative="1" as="geometry">
            <mxPoint x="-20" y="365" as="targetPoint" />
          </mxGeometry>
        </mxCell>
        <mxCell id="NqoLng2H9EKiZbXhe4lD-144" value="&lt;font style=&quot;color: rgb(255, 0, 0);&quot;&gt;Swimlane&lt;/font&gt;" style="text;html=1;align=center;verticalAlign=middle;resizable=0;points=[];autosize=1;strokeColor=none;fillColor=none;fontColor=#143642;labelBackgroundColor=none;rounded=1;" vertex="1" parent="1">
          <mxGeometry x="-160" y="350" width="80" height="30" as="geometry" />
        </mxCell>
        <mxCell id="NqoLng2H9EKiZbXhe4lD-152" style="edgeStyle=orthogonalEdgeStyle;rounded=1;orthogonalLoop=1;jettySize=auto;html=1;strokeColor=#A8201A;fontFamily=Helvetica;fontSize=12;fontColor=default;labelBackgroundColor=none;dashed=1;" edge="1" parent="1" source="NqoLng2H9EKiZbXhe4lD-151">
          <mxGeometry relative="1" as="geometry">
            <mxPoint x="195" y="290" as="targetPoint" />
          </mxGeometry>
        </mxCell>
        <mxCell id="NqoLng2H9EKiZbXhe4lD-153" value="" style="edgeLabel;html=1;align=center;verticalAlign=middle;resizable=0;points=[];strokeColor=#0F8B8D;fontFamily=Helvetica;fontSize=12;fontColor=#143642;labelBackgroundColor=none;fillColor=#FAE5C7;rounded=1;" vertex="1" connectable="0" parent="NqoLng2H9EKiZbXhe4lD-152">
          <mxGeometry x="0.1404" y="-1" relative="1" as="geometry">
            <mxPoint as="offset" />
          </mxGeometry>
        </mxCell>
        <mxCell id="NqoLng2H9EKiZbXhe4lD-155" value="" style="edgeLabel;html=1;align=center;verticalAlign=middle;resizable=0;points=[];strokeColor=#0F8B8D;fontFamily=Helvetica;fontSize=12;fontColor=#143642;labelBackgroundColor=none;fillColor=#FAE5C7;rounded=1;" vertex="1" connectable="0" parent="NqoLng2H9EKiZbXhe4lD-152">
          <mxGeometry x="0.4605" y="-5" relative="1" as="geometry">
            <mxPoint as="offset" />
          </mxGeometry>
        </mxCell>
        <mxCell id="NqoLng2H9EKiZbXhe4lD-151" value="&lt;font style=&quot;color: rgb(255, 0, 0);&quot;&gt;Control Flow&lt;/font&gt;" style="text;html=1;align=center;verticalAlign=middle;resizable=0;points=[];autosize=1;strokeColor=none;fillColor=none;fontFamily=Helvetica;fontSize=12;fontColor=#143642;labelBackgroundColor=none;rounded=1;" vertex="1" parent="1">
          <mxGeometry x="150" y="128" width="90" height="30" as="geometry" />
        </mxCell>
        <mxCell id="NqoLng2H9EKiZbXhe4lD-156" value="&lt;font style=&quot;color: rgb(255, 0, 0);&quot;&gt;Final node&lt;/font&gt;" style="text;html=1;align=center;verticalAlign=middle;resizable=0;points=[];autosize=1;strokeColor=none;fillColor=none;fontFamily=Helvetica;fontSize=12;fontColor=#143642;labelBackgroundColor=none;rounded=1;" vertex="1" parent="1">
          <mxGeometry x="10" y="1480" width="80" height="30" as="geometry" />
        </mxCell>
        <mxCell id="NqoLng2H9EKiZbXhe4lD-157" style="edgeStyle=orthogonalEdgeStyle;rounded=1;orthogonalLoop=1;jettySize=auto;html=1;entryX=0.667;entryY=1.333;entryDx=0;entryDy=0;entryPerimeter=0;strokeColor=#A8201A;fontFamily=Helvetica;fontSize=12;fontColor=default;labelBackgroundColor=none;dashed=1;" edge="1" parent="1" source="NqoLng2H9EKiZbXhe4lD-156" target="NqoLng2H9EKiZbXhe4lD-48">
          <mxGeometry relative="1" as="geometry" />
        </mxCell>
      </root>
    </mxGraphModel>
  </diagram>
</mxfile>
